<svg id="visual" viewBox="0 0 900 900" xmlns="http://www.w3.org/2000/svg" xmlns:xlink="http://www.w3.org/1999/xlink" version="1.1"><rect x="0" y="0" width="900" height="900" fill="#438D98"></rect><path d="M0 641L15 647.5C30 654 60 667 90 667.8C120 668.7 150 657.3 180 673.7C210 690 240 734 270 749.5C300 765 330 752 360 740.7C390 729.3 420 719.7 450 700.2C480 680.7 510 651.3 540 648C570 644.7 600 667.3 630 675.8C660 684.3 690 678.7 720 663.7C750 648.7 780 624.3 810 617.7C840 611 870 622 885 627.5L900 633L900 901L885 901C870 901 840 901 810 901C780 901 750 901 720 901C690 901 660 901 630 901C600 901 570 901 540 901C510 901 480 901 450 901C420 901 390 901 360 901C330 901 300 901 270 901C240 901 210 901 180 901C150 901 120 901 90 901C60 901 30 901 15 901L0 901Z" fill="#FDFDFD" stroke-linecap="round" stroke-linejoin="miter"></path></svg>